{
  "accessors": [
    {
      "bufferView": 2,
      "componentType": 5126,
      "count": 2111,
      "max": [
        61.458045959472656,
        -2.285308837890625,
        205.6160430908203
      ],
      "min": [
        -61.301937103271484,
        -112.2178726196289,
        0.0
      ],
      "type": "VEC3"
    },
    {
      "bufferView": 2,
      "byteOffset": 25332,
      "componentType": 5126,
      "count": 2111,
      "max": [
        1.0,
        0.9998074769973755,
        1.0
      ],
      "min": [
        -1.0,
        -0.9999706149101257,
        -1.0
      ],
      "type": "VEC3"
    },
    {
      "bufferView": 1,
      "componentType": 5126,
      "count": 2111,
      "max": [
        0.9990000128746033,
        0.9943720698356628
      ],
      "min": [
        0.0010000000474974513,
        0.0010000000474974513
      ],
      "type": "VEC2"
    },
    {
      "bufferView": 0,
      "componentType": 5125,
      "count": 5754,
      "type": "SCALAR"
    },
    {
      "bufferView": 2,
      "byteOffset": 50664,
      "componentType": 5126,
      "count": 208,
      "max": [
        22.950056076049805,
        17.7021541595459,
        11.757296562194824
      ],
      "min": [
        -22.753252029418945,
        -17.264583587646484,
        1.159554362297058
      ],
      "type": "VEC3"
    },
    {
      "bufferView": 2,
      "byteOffset": 53160,
      "componentType": 5126,
      "count": 208,
      "max": [
        0.8883309960365295,
        1.0,
        0.9999969601631165
      ],
      "min": [
        -0.8863886594772339,
        -1.0,
        -0.9999985694885254
      ],
      "type": "VEC3"
    },
    {
      "bufferView": 3,
      "componentType": 5126,
      "count": 208,
      "max": [
        0.745578408241272,
        0.9999970197677612,
        1.0,
        1.0
      ],
      "min": [
        -0.9999985098838806,
        -1.0,
        -0.4475448727607727,
        1.0
      ],
      "type": "VEC4"
    },
    {
      "bufferView": 1,
      "byteOffset": 16888,
      "componentType": 5126,
      "count": 208,
      "max": [
        0.9931648969650269,
        0.9990000128746033
      ],
      "min": [
        0.0010000000474974513,
        0.0010000000474974513
      ],
      "type": "VEC2"
    },
    {
      "bufferView": 0,
      "byteOffset": 23016,
      "componentType": 5125,
      "count": 540,
      "type": "SCALAR"
    },
    {
      "bufferView": 2,
      "byteOffset": 55656,
      "componentType": 5126,
      "count": 332,
      "max": [
        28.04187774658203,
        2.4646637439727783,
        1.6172516345977783
      ],
      "min": [
        -29.25659942626953,
        -102.12540435791016,
        -54.80628967285156
      ],
      "type": "VEC3"
    },
    {
      "bufferView": 2,
      "byteOffset": 59640,
      "componentType": 5126,
      "count": 332,
      "max": [
        1.0,
        1.0,
        1.0
      ],
      "min": [
        -1.0,
        -1.0,
        -1.0
      ],
      "type": "VEC3"
    },
    {
      "bufferView": 1,
      "byteOffset": 18552,
      "componentType": 5126,
      "count": 332,
      "max": [
        0.9784801006317139,
        0.9990000128746033
      ],
      "min": [
        0.0010000000474974513,
        0.0010000000474974513
      ],
      "type": "VEC2"
    },
    {
      "bufferView": 0,
      "byteOffset": 25176,
      "componentType": 5125,
      "count": 432,
      "type": "SCALAR"
    }
  ],
  "asset": {
    "extras": {
      "author": "Samuel Metters (https://sketchfab.com/samuelmetters)",
      "license": "CC-BY-4.0 (http://creativecommons.org/licenses/by/4.0/)",
      "source": "https://sketchfab.com/3d-models/cartoon-rocket-c307f05e5dcb4afbae2f59552ba79f55",
      "title": "Cartoon Rocket"
    },
    "generator": "Sketchfab-12.65.0",
    "version": "2.0"
  },
  "bufferViews": [
    {
      "buffer": 0,
      "byteLength": 26904,
      "name": "floatBufferViews",
      "target": 34963
    },
    {
      "buffer": 0,
      "byteLength": 21208,
      "byteOffset": 26904,
      "byteStride": 8,
      "name": "floatBufferViews",
      "target": 34962
    },
    {
      "buffer": 0,
      "byteLength": 63624,
      "byteOffset": 48112,
      "byteStride": 12,
      "name": "floatBufferViews",
      "target": 34962
    },
    {
      "buffer": 0,
      "byteLength": 3328,
      "byteOffset": 111736,
      "byteStride": 16,
      "name": "floatBufferViews",
      "target": 34962
    }
  ],
  "buffers": [
    {
      "byteLength": 115064,
      "uri": "scene.bin"
    }
  ],
  "images": [
    {
      "uri": "textures/Material_51_baseColor.png"
    },
    {
      "uri": "textures/Material_51_metallicRoughness.png"
    },
    {
      "uri": "textures/Material_50_baseColor.png"
    },
    {
      "uri": "textures/Material_50_metallicRoughness.png"
    },
    {
      "uri": "textures/Material_50_normal.png"
    },
    {
      "uri": "textures/Material_47_baseColor.png"
    },
    {
      "uri": "textures/Material_47_metallicRoughness.png"
    }
  ],
  "materials": [
    {
      "doubleSided": true,
      "name": "Material_51",
      "pbrMetallicRoughness": {
        "baseColorTexture": {
          "index": 0
        },
        "metallicRoughnessTexture": {
          "index": 1
        }
      }
    },
    {
      "doubleSided": true,
      "name": "Material_50",
      "normalTexture": {
        "index": 4
      },
      "pbrMetallicRoughness": {
        "baseColorTexture": {
          "index": 2
        },
        "metallicRoughnessTexture": {
          "index": 3
        }
      }
    },
    {
      "doubleSided": true,
      "name": "Material_47",
      "pbrMetallicRoughness": {
        "baseColorTexture": {
          "index": 5
        },
        "metallicRoughnessTexture": {
          "index": 6
        }
      }
    }
  ],
  "meshes": [
    {
      "name": "Cylinder002_Material #51_0",
      "primitives": [
        {
          "attributes": {
            "NORMAL": 1,
            "POSITION": 0,
            "TEXCOORD_0": 2
          },
          "indices": 3,
          "material": 0,
          "mode": 4
        }
      ]
    },
    {
      "name": "Cylinder004_Material #50_0",
      "primitives": [
        {
          "attributes": {
            "NORMAL": 5,
            "POSITION": 4,
            "TANGENT": 6,
            "TEXCOORD_0": 7
          },
          "indices": 8,
          "material": 1,
          "mode": 4
        }
      ]
    },
    {
      "name": "Sphere008_Material #47_0",
      "primitives": [
        {
          "attributes": {
            "NORMAL": 10,
            "POSITION": 9,
            "TEXCOORD_0": 11
          },
          "indices": 12,
          "material": 2,
          "mode": 4
        }
      ]
    }
  ],
  "nodes": [
    {
      "children": [
        1
      ],
      "matrix": [
        1.0,
        0.0,
        0.0,
        0.0,
        0.0,
        2.220446049250313e-16,
        -1.0,
        0.0,
        0.0,
        1.0,
        2.220446049250313e-16,
        0.0,
        0.0,
        0.0,
        0.0,
        1.0
      ],
      "name": "Sketchfab_model"
    },
    {
      "children": [
        2
      ],
      "matrix": [
        1.0,
        0.0,
        0.0,
        0.0,
        0.0,
        0.0,
        1.0,
        0.0,
        0.0,
        -1.0,
        0.0,
        0.0,
        0.0,
        0.0,
        0.0,
        1.0
      ],
      "name": "caf6721449314eaa9995e07c7c5ca95f.fbx"
    },
    {
      "children": [
        3,
        5,
        7
      ],
      "name": "RootNode"
    },
    {
      "children": [
        4
      ],
      "matrix": [
        1.0,
        0.0,
        0.0,
        0.0,
        0.0,
        2.220446049250313e-16,
        -1.0,
        0.0,
        0.0,
        1.0,
        2.220446049250313e-16,
        0.0,
        -5.495543479919434,
        -13.454635620117188,
        -63.09041976928711,
        1.0
      ],
      "name": "Cylinder002"
    },
    {
      "mesh": 0,
      "name": "Cylinder002_Material #51_0"
    },
    {
      "children": [
        6
      ],
      "matrix": [
        0.8117392959947755,
        -5.720916793424244e-19,
        0.008784838632558472,
        0.0,
        -0.00029264553717871315,
        0.9996340406916415,
        0.02704112076060732,
        0.0,
        -0.010817648098471624,
        -0.02704270586644191,
        0.9995755663886557,
        0.0,
        -5.65805721282959,
        97.90143585205078,
        27.279544830322266,
        1.0
      ],
      "name": "Cylinder004"
    },
    {
      "mesh": 1,
      "name": "Cylinder004_Material #50_0"
    },
    {
      "children": [
        8
      ],
      "matrix": [
        0.9445417669256704,
        -0.0036605897459220608,
        -0.328370904033297,
        0.0,
        -0.002133672581274234,
        0.999848353642542,
        -0.017283435989819237,
        0.0,
        0.328384492789768,
        0.017025569251610532,
        0.9443910578477174,
        0.0,
        4.100889205932617,
        120.0501937866211,
        33.484397888183594,
        1.0
      ],
      "name": "Sphere008"
    },
    {
      "mesh": 2,
      "name": "Sphere008_Material #47_0"
    }
  ],
  "samplers": [
    {
      "magFilter": 9729,
      "minFilter": 9987,
      "wrapS": 10497,
      "wrapT": 10497
    }
  ],
  "scene": 0,
  "scenes": [
    {
      "name": "Sketchfab_Scene",
      "nodes": [
        0
      ]
    }
  ],
  "textures": [
    {
      "sampler": 0,
      "source": 0
    },
    {
      "sampler": 0,
      "source": 1
    },
    {
      "sampler": 0,
      "source": 2
    },
    {
      "sampler": 0,
      "source": 3
    },
    {
      "sampler": 0,
      "source": 4
    },
    {
      "sampler": 0,
      "source": 5
    },
    {
      "sampler": 0,
      "source": 6
    }
  ]
}
