{
  "accessors": [
    {
      "bufferView": 2,
      "componentType": 5126,
      "count": 9172,
      "max": [
        0.8353769779205322,
        2.3400731086730957,
        0.9842770099639893
      ],
      "min": [
        -0.8353769779205322,
        -1.4102439880371094,
        -0.4156779944896698
      ],
      "type": "VEC3"
    },
    {
      "bufferView": 2,
      "byteOffset": 110064,
      "componentType": 5126,
      "count": 9172,
      "max": [
        0.9999591112136841,
        1.0,
        1.0
      ],
      "min": [
        -0.9999591112136841,
        -1.0,
        -1.0
      ],
      "type": "VEC3"
    },
    {
      "bufferView": 3,
      "componentType": 5126,
      "count": 9172,
      "max": [
        1.0,
        1.0,
        1.0,
        1.0
      ],
      "min": [
        -1.0,
        -0.9984273314476013,
        -1.0,
        -1.0
      ],
      "type": "VEC4"
    },
    {
      "bufferView": 1,
      "componentType": 5126,
      "count": 9172,
      "max": [
        0.9972360134124756,
        0.9872739911079407
      ],
      "min": [
        0.01140500046312809,
        0.003360999980941415
      ],
      "type": "VEC2"
    },
    {
      "bufferView": 0,
      "componentType": 5125,
      "count": 33384,
      "type": "SCALAR"
    },
    {
      "bufferView": 2,
      "byteOffset": 220128,
      "componentType": 5126,
      "count": 8616,
      "max": [
        0.5811929702758789,
        2.326690912246704,
        0.49094098806381226
      ],
      "min": [
        -0.5811929702758789,
        -1.2708849906921387,
        -0.5663650035858154
      ],
      "type": "VEC3"
    },
    {
      "bufferView": 2,
      "byteOffset": 323520,
      "componentType": 5126,
      "count": 8616,
      "max": [
        1.0,
        1.0,
        1.0
      ],
      "min": [
        -1.0,
        -1.0,
        -1.0
      ],
      "type": "VEC3"
    },
    {
      "bufferView": 3,
      "byteOffset": 146752,
      "componentType": 5126,
      "count": 8616,
      "max": [
        1.0,
        1.0,
        1.0,
        1.0
      ],
      "min": [
        -1.0,
        -1.0,
        -1.0,
        -1.0
      ],
      "type": "VEC4"
    },
    {
      "bufferView": 1,
      "byteOffset": 73376,
      "componentType": 5126,
      "count": 8616,
      "max": [
        0.9938669800758362,
        0.9085580110549927
      ],
      "min": [
        0.00042600001324899495,
        0.00030700000934302807
      ],
      "type": "VEC2"
    },
    {
      "bufferView": 0,
      "byteOffset": 133536,
      "componentType": 5125,
      "count": 26796,
      "type": "SCALAR"
    },
    {
      "bufferView": 2,
      "byteOffset": 426912,
      "componentType": 5126,
      "count": 2538,
      "max": [
        0.64751797914505,
        1.6338239908218384,
        -0.06644199788570404
      ],
      "min": [
        -0.64751797914505,
        -1.4312889575958252,
        -0.48200199007987976
      ],
      "type": "VEC3"
    },
    {
      "bufferView": 2,
      "byteOffset": 457368,
      "componentType": 5126,
      "count": 2538,
      "max": [
        1.0,
        1.0,
        1.0
      ],
      "min": [
        -1.0,
        -1.0,
        -1.0
      ],
      "type": "VEC3"
    },
    {
      "bufferView": 3,
      "byteOffset": 284608,
      "componentType": 5126,
      "count": 2538,
      "max": [
        1.0,
        0.9154359102249146,
        0.9999998807907104,
        1.0
      ],
      "min": [
        -1.0,
        -0.9999990463256836,
        -0.9999708533287048,
        -1.0
      ],
      "type": "VEC4"
    },
    {
      "bufferView": 1,
      "byteOffset": 142304,
      "componentType": 5126,
      "count": 2538,
      "max": [
        0.9896759986877441,
        0.8041539788246155
      ],
      "min": [
        0.6047530174255371,
        0.006599999964237213
      ],
      "type": "VEC2"
    },
    {
      "bufferView": 0,
      "byteOffset": 240720,
      "componentType": 5125,
      "count": 9816,
      "type": "SCALAR"
    }
  ],
  "asset": {
    "extras": {
      "author": "assetfactory (https://sketchfab.com/assetfactory)",
      "license": "SKETCHFAB Standard (https://sketchfab.com/licenses)",
      "source": "https://sketchfab.com/3d-models/space-shuttle-with-boosters-28c98646369f48ee84bc20c267bc685f",
      "title": "Space Shuttle with boosters"
    },
    "generator": "Sketchfab-16.33.0",
    "version": "2.0"
  },
  "bufferViews": [
    {
      "buffer": 0,
      "byteLength": 279984,
      "name": "floatBufferViews",
      "target": 34963
    },
    {
      "buffer": 0,
      "byteLength": 162608,
      "byteOffset": 279984,
      "byteStride": 8,
      "name": "floatBufferViews",
      "target": 34962
    },
    {
      "buffer": 0,
      "byteLength": 487824,
      "byteOffset": 442592,
      "byteStride": 12,
      "name": "floatBufferViews",
      "target": 34962
    },
    {
      "buffer": 0,
      "byteLength": 325216,
      "byteOffset": 930416,
      "byteStride": 16,
      "name": "floatBufferViews",
      "target": 34962
    }
  ],
  "buffers": [
    {
      "byteLength": 1255632,
      "uri": "scene.bin"
    }
  ],
  "images": [
    {
      "uri": "textures/SpaceShuttle_baseColor.jpeg"
    },
    {
      "uri": "textures/SpaceShuttle_metallicRoughness.png"
    },
    {
      "uri": "textures/SpaceShuttle_normal.png"
    }
  ],
  "materials": [
    {
      "doubleSided": true,
      "name": "SpaceShuttle",
      "normalTexture": {
        "index": 2
      },
      "pbrMetallicRoughness": {
        "baseColorTexture": {
          "index": 0
        },
        "metallicRoughnessTexture": {
          "index": 1
        }
      }
    }
  ],
  "meshes": [
    {
      "name": "Object_0",
      "primitives": [
        {
          "attributes": {
            "NORMAL": 1,
            "POSITION": 0,
            "TANGENT": 2,
            "TEXCOORD_0": 3
          },
          "indices": 4,
          "material": 0,
          "mode": 4
        }
      ]
    },
    {
      "name": "Object_1",
      "primitives": [
        {
          "attributes": {
            "NORMAL": 6,
            "POSITION": 5,
            "TANGENT": 7,
            "TEXCOORD_0": 8
          },
          "indices": 9,
          "material": 0,
          "mode": 4
        }
      ]
    },
    {
      "name": "Object_2",
      "primitives": [
        {
          "attributes": {
            "NORMAL": 11,
            "POSITION": 10,
            "TANGENT": 12,
            "TEXCOORD_0": 13
          },
          "indices": 14,
          "material": 0,
          "mode": 4
        }
      ]
    }
  ],
  "nodes": [
    {
      "children": [
        1
      ],
      "matrix": [
        1.0,
        0.0,
        0.0,
        0.0,
        0.0,
        2.220446049250313e-16,
        -1.0,
        0.0,
        0.0,
        1.0,
        2.220446049250313e-16,
        0.0,
        0.0,
        0.0,
        0.0,
        1.0
      ],
      "name": "Sketchfab_model"
    },
    {
      "children": [
        2,
        3,
        4
      ],
      "name": "SpaceShuttle.obj.cleaner.materialmerger.gles"
    },
    {
      "mesh": 0,
      "name": "Object_2"
    },
    {
      "mesh": 1,
      "name": "Object_3"
    },
    {
      "mesh": 2,
      "name": "Object_4"
    }
  ],
  "samplers": [
    {
      "magFilter": 9729,
      "minFilter": 9987,
      "wrapS": 10497,
      "wrapT": 10497
    }
  ],
  "scene": 0,
  "scenes": [
    {
      "name": "Sketchfab_Scene",
      "nodes": [
        0
      ]
    }
  ],
  "textures": [
    {
      "sampler": 0,
      "source": 0
    },
    {
      "sampler": 0,
      "source": 1
    },
    {
      "sampler": 0,
      "source": 2
    }
  ]
}
