{
  "accessors": [
    {
      "bufferView": 2,
      "componentType": 5126,
      "count": 65532,
      "max": [
        13.392046928405762,
        33.435882568359375,
        7.289358615875244
      ],
      "min": [
        -13.392046928405762,
        -16.666547775268555,
        -6.1130571365356445
      ],
      "type": "VEC3"
    },
    {
      "bufferView": 2,
      "byteOffset": 786384,
      "componentType": 5126,
      "count": 65532,
      "max": [
        1.0,
        1.0,
        1.0
      ],
      "min": [
        -1.0,
        -1.0,
        -1.0
      ],
      "type": "VEC3"
    },
    {
      "bufferView": 3,
      "componentType": 5126,
      "count": 65532,
      "max": [
        1.0,
        1.0,
        1.0,
        1.0
      ],
      "min": [
        -1.0,
        -1.0,
        -1.0,
        -1.0
      ],
      "type": "VEC4"
    },
    {
      "bufferView": 1,
      "componentType": 5126,
      "count": 65532,
      "max": [
        0.9991145730018616,
        0.9987902641296387
      ],
      "min": [
        0.00013674396905116737,
        0.00013675297668669373
      ],
      "type": "VEC2"
    },
    {
      "bufferView": 1,
      "byteOffset": 524256,
      "componentType": 5126,
      "count": 65532,
      "max": [
        0.9991145730018616,
        0.9987902641296387
      ],
      "min": [
        0.00013674396905116737,
        0.00013675297668669373
      ],
      "type": "VEC2"
    },
    {
      "bufferView": 0,
      "componentType": 5125,
      "count": 176235,
      "type": "SCALAR"
    },
    {
      "bufferView": 2,
      "byteOffset": 1572768,
      "componentType": 5126,
      "count": 44124,
      "max": [
        13.392046928405762,
        34.390411376953125,
        6.416036605834961
      ],
      "min": [
        -13.392046928405762,
        -11.910255432128906,
        -5.175187110900879
      ],
      "type": "VEC3"
    },
    {
      "bufferView": 2,
      "byteOffset": 2102256,
      "componentType": 5126,
      "count": 44124,
      "max": [
        1.0,
        1.0,
        1.0
      ],
      "min": [
        -1.0,
        -1.0,
        -1.0
      ],
      "type": "VEC3"
    },
    {
      "bufferView": 3,
      "byteOffset": 1048512,
      "componentType": 5126,
      "count": 44124,
      "max": [
        1.0,
        1.0,
        1.0,
        1.0
      ],
      "min": [
        -1.0,
        -1.0,
        -1.0,
        -1.0
      ],
      "type": "VEC4"
    },
    {
      "bufferView": 1,
      "byteOffset": 1048512,
      "componentType": 5126,
      "count": 44124,
      "max": [
        0.999951183795929,
        0.9987726807594299
      ],
      "min": [
        4.882812572759576e-05,
        4.882812572759576e-05
      ],
      "type": "VEC2"
    },
    {
      "bufferView": 1,
      "byteOffset": 1401504,
      "componentType": 5126,
      "count": 44124,
      "max": [
        0.999951183795929,
        0.9987726807594299
      ],
      "min": [
        4.882812572759576e-05,
        4.882812572759576e-05
      ],
      "type": "VEC2"
    },
    {
      "bufferView": 0,
      "byteOffset": 704940,
      "componentType": 5125,
      "count": 124278,
      "type": "SCALAR"
    },
    {
      "bufferView": 2,
      "byteOffset": 2631744,
      "componentType": 5126,
      "count": 65532,
      "max": [
        13.392046928405762,
        33.435882568359375,
        7.289358615875244
      ],
      "min": [
        -13.392046928405762,
        -16.666547775268555,
        -6.1130571365356445
      ],
      "type": "VEC3"
    },
    {
      "bufferView": 2,
      "byteOffset": 3418128,
      "componentType": 5126,
      "count": 65532,
      "max": [
        1.0,
        1.0,
        1.0
      ],
      "min": [
        -1.0,
        -1.0,
        -1.0
      ],
      "type": "VEC3"
    },
    {
      "bufferView": 3,
      "byteOffset": 1754496,
      "componentType": 5126,
      "count": 65532,
      "max": [
        1.0,
        1.0,
        1.0,
        1.0
      ],
      "min": [
        -1.0,
        -1.0,
        -1.0,
        -1.0
      ],
      "type": "VEC4"
    },
    {
      "bufferView": 1,
      "byteOffset": 1754496,
      "componentType": 5126,
      "count": 65532,
      "max": [
        0.9991145730018616,
        0.9987902641296387
      ],
      "min": [
        0.00013674396905116737,
        0.00013675297668669373
      ],
      "type": "VEC2"
    },
    {
      "bufferView": 1,
      "byteOffset": 2278752,
      "componentType": 5126,
      "count": 65532,
      "max": [
        0.9991145730018616,
        0.9987902641296387
      ],
      "min": [
        0.00013674396905116737,
        0.00013675297668669373
      ],
      "type": "VEC2"
    },
    {
      "bufferView": 0,
      "byteOffset": 1202052,
      "componentType": 5125,
      "count": 176235,
      "type": "SCALAR"
    },
    {
      "bufferView": 2,
      "byteOffset": 4204512,
      "componentType": 5126,
      "count": 44124,
      "max": [
        13.392046928405762,
        34.390411376953125,
        6.416036605834961
      ],
      "min": [
        -13.392046928405762,
        -11.910255432128906,
        -5.175187110900879
      ],
      "type": "VEC3"
    },
    {
      "bufferView": 2,
      "byteOffset": 4734000,
      "componentType": 5126,
      "count": 44124,
      "max": [
        1.0,
        1.0,
        1.0
      ],
      "min": [
        -1.0,
        -1.0,
        -1.0
      ],
      "type": "VEC3"
    },
    {
      "bufferView": 3,
      "byteOffset": 2803008,
      "componentType": 5126,
      "count": 44124,
      "max": [
        1.0,
        1.0,
        1.0,
        1.0
      ],
      "min": [
        -1.0,
        -1.0,
        -1.0,
        -1.0
      ],
      "type": "VEC4"
    },
    {
      "bufferView": 1,
      "byteOffset": 2803008,
      "componentType": 5126,
      "count": 44124,
      "max": [
        0.999951183795929,
        0.9987726807594299
      ],
      "min": [
        4.882812572759576e-05,
        4.882812572759576e-05
      ],
      "type": "VEC2"
    },
    {
      "bufferView": 1,
      "byteOffset": 3156000,
      "componentType": 5126,
      "count": 44124,
      "max": [
        0.999951183795929,
        0.9987726807594299
      ],
      "min": [
        4.882812572759576e-05,
        4.882812572759576e-05
      ],
      "type": "VEC2"
    },
    {
      "bufferView": 0,
      "byteOffset": 1906992,
      "componentType": 5125,
      "count": 124278,
      "type": "SCALAR"
    },
    {
      "bufferView": 2,
      "byteOffset": 5263488,
      "componentType": 5126,
      "count": 65532,
      "max": [
        13.392046928405762,
        33.435882568359375,
        7.289358615875244
      ],
      "min": [
        -13.392046928405762,
        -16.666547775268555,
        -6.1130571365356445
      ],
      "type": "VEC3"
    },
    {
      "bufferView": 2,
      "byteOffset": 6049872,
      "componentType": 5126,
      "count": 65532,
      "max": [
        1.0,
        1.0,
        1.0
      ],
      "min": [
        -1.0,
        -1.0,
        -1.0
      ],
      "type": "VEC3"
    },
    {
      "bufferView": 3,
      "byteOffset": 3508992,
      "componentType": 5126,
      "count": 65532,
      "max": [
        1.0,
        1.0,
        1.0,
        1.0
      ],
      "min": [
        -1.0,
        -1.0,
        -1.0,
        -1.0
      ],
      "type": "VEC4"
    },
    {
      "bufferView": 1,
      "byteOffset": 3508992,
      "componentType": 5126,
      "count": 65532,
      "max": [
        0.9991145730018616,
        0.9987902641296387
      ],
      "min": [
        0.00013674396905116737,
        0.00013675297668669373
      ],
      "type": "VEC2"
    },
    {
      "bufferView": 1,
      "byteOffset": 4033248,
      "componentType": 5126,
      "count": 65532,
      "max": [
        0.9991145730018616,
        0.9987902641296387
      ],
      "min": [
        0.00013674396905116737,
        0.00013675297668669373
      ],
      "type": "VEC2"
    },
    {
      "bufferView": 0,
      "byteOffset": 2404104,
      "componentType": 5125,
      "count": 176235,
      "type": "SCALAR"
    },
    {
      "bufferView": 2,
      "byteOffset": 6836256,
      "componentType": 5126,
      "count": 44124,
      "max": [
        13.392046928405762,
        34.390411376953125,
        6.416036605834961
      ],
      "min": [
        -13.392046928405762,
        -11.910255432128906,
        -5.175187110900879
      ],
      "type": "VEC3"
    },
    {
      "bufferView": 2,
      "byteOffset": 7365744,
      "componentType": 5126,
      "count": 44124,
      "max": [
        1.0,
        1.0,
        1.0
      ],
      "min": [
        -1.0,
        -1.0,
        -1.0
      ],
      "type": "VEC3"
    },
    {
      "bufferView": 3,
      "byteOffset": 4557504,
      "componentType": 5126,
      "count": 44124,
      "max": [
        1.0,
        1.0,
        1.0,
        1.0
      ],
      "min": [
        -1.0,
        -1.0,
        -1.0,
        -1.0
      ],
      "type": "VEC4"
    },
    {
      "bufferView": 1,
      "byteOffset": 4557504,
      "componentType": 5126,
      "count": 44124,
      "max": [
        0.999951183795929,
        0.9987726807594299
      ],
      "min": [
        4.882812572759576e-05,
        4.882812572759576e-05
      ],
      "type": "VEC2"
    },
    {
      "bufferView": 1,
      "byteOffset": 4910496,
      "componentType": 5126,
      "count": 44124,
      "max": [
        0.999951183795929,
        0.9987726807594299
      ],
      "min": [
        4.882812572759576e-05,
        4.882812572759576e-05
      ],
      "type": "VEC2"
    },
    {
      "bufferView": 0,
      "byteOffset": 3109044,
      "componentType": 5125,
      "count": 124278,
      "type": "SCALAR"
    }
  ],
  "asset": {
    "extras": {
      "author": "Kerem Kavalci (https://sketchfab.com/Keremz)",
      "license": "SKETCHFAB Standard (https://sketchfab.com/licenses)",
      "source": "https://sketchfab.com/3d-models/class-3-fighter-spaceship-hodbin-free-model-3451df5fb9d34cd98c3f63cfc0321dd3",
      "title": "CLASS-3 FIGHTER SPACESHIP HODBIN - FREE MODEL"
    },
    "generator": "Sketchfab-15.55.0",
    "version": "2.0"
  },
  "bufferViews": [
    {
      "buffer": 0,
      "byteLength": 3606156,
      "name": "floatBufferViews",
      "target": 34963
    },
    {
      "buffer": 0,
      "byteLength": 5263488,
      "byteOffset": 3606156,
      "byteStride": 8,
      "name": "floatBufferViews",
      "target": 34962
    },
    {
      "buffer": 0,
      "byteLength": 7895232,
      "byteOffset": 8869644,
      "byteStride": 12,
      "name": "floatBufferViews",
      "target": 34962
    },
    {
      "buffer": 0,
      "byteLength": 5263488,
      "byteOffset": 16764876,
      "byteStride": 16,
      "name": "floatBufferViews",
      "target": 34962
    }
  ],
  "buffers": [
    {
      "byteLength": 22028364,
      "uri": "scene.bin"
    }
  ],
  "extensionsUsed": [
    "KHR_materials_emissive_strength"
  ],
  "images": [
    {
      "uri": "textures/Spaceship_1_baseColor.png"
    },
    {
      "uri": "textures/Spaceship_1_metallicRoughness.png"
    },
    {
      "uri": "textures/Spaceship_1_emissive.png"
    },
    {
      "uri": "textures/Spaceship_1_normal.png"
    },
    {
      "uri": "textures/Spaceship_2_baseColor.png"
    },
    {
      "uri": "textures/Spaceship_baseColor.png"
    }
  ],
  "materials": [
    {
      "alphaMode": "BLEND",
      "doubleSided": true,
      "emissiveFactor": [
        1.0,
        1.0,
        1.0
      ],
      "emissiveTexture": {
        "index": 2
      },
      "extensions": {
        "KHR_materials_emissive_strength": {
          "emissiveStrength": 5.0
        }
      },
      "name": "Spaceship_1",
      "normalTexture": {
        "index": 3
      },
      "occlusionTexture": {
        "index": 1
      },
      "pbrMetallicRoughness": {
        "baseColorTexture": {
          "index": 0
        },
        "metallicRoughnessTexture": {
          "index": 1
        }
      }
    },
    {
      "alphaMode": "BLEND",
      "doubleSided": true,
      "emissiveFactor": [
        1.0,
        1.0,
        1.0
      ],
      "emissiveTexture": {
        "index": 2
      },
      "extensions": {
        "KHR_materials_emissive_strength": {
          "emissiveStrength": 5.0
        }
      },
      "name": "Spaceship_2",
      "normalTexture": {
        "index": 3
      },
      "occlusionTexture": {
        "index": 1
      },
      "pbrMetallicRoughness": {
        "baseColorTexture": {
          "index": 4
        },
        "metallicRoughnessTexture": {
          "index": 1
        }
      }
    },
    {
      "alphaMode": "BLEND",
      "doubleSided": true,
      "emissiveFactor": [
        1.0,
        1.0,
        1.0
      ],
      "emissiveTexture": {
        "index": 2
      },
      "extensions": {
        "KHR_materials_emissive_strength": {
          "emissiveStrength": 5.0
        }
      },
      "name": "Spaceship",
      "normalTexture": {
        "index": 3
      },
      "occlusionTexture": {
        "index": 1
      },
      "pbrMetallicRoughness": {
        "baseColorTexture": {
          "index": 5
        },
        "metallicRoughnessTexture": {
          "index": 1
        }
      }
    }
  ],
  "meshes": [
    {
      "name": "Cube.034_Spaceship_1_0",
      "primitives": [
        {
          "attributes": {
            "NORMAL": 1,
            "POSITION": 0,
            "TANGENT": 2,
            "TEXCOORD_0": 3,
            "TEXCOORD_1": 4
          },
          "indices": 5,
          "material": 0,
          "mode": 4
        }
      ]
    },
    {
      "name": "Cube.034_Spaceship_1_0",
      "primitives": [
        {
          "attributes": {
            "NORMAL": 7,
            "POSITION": 6,
            "TANGENT": 8,
            "TEXCOORD_0": 9,
            "TEXCOORD_1": 10
          },
          "indices": 11,
          "material": 0,
          "mode": 4
        }
      ]
    },
    {
      "name": "Cube.005_Spaceship_2_0",
      "primitives": [
        {
          "attributes": {
            "NORMAL": 13,
            "POSITION": 12,
            "TANGENT": 14,
            "TEXCOORD_0": 15,
            "TEXCOORD_1": 16
          },
          "indices": 17,
          "material": 1,
          "mode": 4
        }
      ]
    },
    {
      "name": "Cube.005_Spaceship_2_0",
      "primitives": [
        {
          "attributes": {
            "NORMAL": 19,
            "POSITION": 18,
            "TANGENT": 20,
            "TEXCOORD_0": 21,
            "TEXCOORD_1": 22
          },
          "indices": 23,
          "material": 1,
          "mode": 4
        }
      ]
    },
    {
      "name": "Cube.007_Spaceship_0",
      "primitives": [
        {
          "attributes": {
            "NORMAL": 25,
            "POSITION": 24,
            "TANGENT": 26,
            "TEXCOORD_0": 27,
            "TEXCOORD_1": 28
          },
          "indices": 29,
          "material": 2,
          "mode": 4
        }
      ]
    },
    {
      "name": "Cube.007_Spaceship_0",
      "primitives": [
        {
          "attributes": {
            "NORMAL": 31,
            "POSITION": 30,
            "TANGENT": 32,
            "TEXCOORD_0": 33,
            "TEXCOORD_1": 34
          },
          "indices": 35,
          "material": 2,
          "mode": 4
        }
      ]
    }
  ],
  "nodes": [
    {
      "children": [
        1
      ],
      "matrix": [
        1.0,
        0.0,
        0.0,
        0.0,
        0.0,
        2.220446049250313e-16,
        -1.0,
        0.0,
        0.0,
        1.0,
        2.220446049250313e-16,
        0.0,
        0.0,
        0.0,
        0.0,
        1.0
      ],
      "name": "Sketchfab_model"
    },
    {
      "children": [
        2
      ],
      "matrix": [
        0.009999999776482582,
        0.0,
        0.0,
        0.0,
        0.0,
        0.0,
        0.009999999776482582,
        0.0,
        0.0,
        -0.009999999776482582,
        0.0,
        0.0,
        0.0,
        0.0,
        0.0,
        1.0
      ],
      "name": "3d38b0f67e1348ed890b978b802f2e95.fbx"
    },
    {
      "children": [
        3,
        6,
        9
      ],
      "name": "RootNode"
    },
    {
      "children": [
        4,
        5
      ],
      "matrix": [
        100.0,
        0.0,
        0.0,
        0.0,
        -0.0,
        -1.629206793918314e-05,
        -99.99999999999868,
        0.0,
        0.0,
        99.99999999999868,
        -1.629206793918314e-05,
        0.0,
        -5991.61474609375,
        -9.141684532165527,
        -5400.06591796875,
        1.0
      ],
      "name": "Cube.034"
    },
    {
      "mesh": 0,
      "name": "Cube.034_Spaceship_1_0"
    },
    {
      "mesh": 1,
      "name": "Cube.034_Spaceship_1_0"
    },
    {
      "children": [
        7,
        8
      ],
      "matrix": [
        100.0,
        0.0,
        0.0,
        0.0,
        -0.0,
        -1.629206793918314e-05,
        -99.99999999999868,
        0.0,
        0.0,
        99.99999999999868,
        -1.629206793918314e-05,
        0.0,
        -9307.7783203125,
        -9.141684532165527,
        -5549.1025390625,
        1.0
      ],
      "name": "Cube.005"
    },
    {
      "mesh": 2,
      "name": "Cube.005_Spaceship_2_0"
    },
    {
      "mesh": 3,
      "name": "Cube.005_Spaceship_2_0"
    },
    {
      "children": [
        10,
        11
      ],
      "matrix": [
        100.0,
        0.0,
        0.0,
        0.0,
        0.0,
        -1.629206793918314e-05,
        -99.99999999999868,
        0.0,
        0.0,
        99.99999999999868,
        -1.629206793918314e-05,
        0.0,
        0.0,
        0.0,
        0.0,
        1.0
      ],
      "name": "Cube.007"
    },
    {
      "mesh": 4,
      "name": "Cube.007_Spaceship_0"
    },
    {
      "mesh": 5,
      "name": "Cube.007_Spaceship_0"
    }
  ],
  "samplers": [
    {
      "magFilter": 9729,
      "minFilter": 9987,
      "wrapS": 10497,
      "wrapT": 10497
    }
  ],
  "scene": 0,
  "scenes": [
    {
      "name": "Sketchfab_Scene",
      "nodes": [
        0
      ]
    }
  ],
  "textures": [
    {
      "sampler": 0,
      "source": 0
    },
    {
      "sampler": 0,
      "source": 1
    },
    {
      "sampler": 0,
      "source": 2
    },
    {
      "sampler": 0,
      "source": 3
    },
    {
      "sampler": 0,
      "source": 4
    },
    {
      "sampler": 0,
      "source": 5
    }
  ]
}
